 <svg version="1.0" xmlns="http://www.w3.org/2000/svg" width="700.000000pt" height="700.000000pt" viewBox="0 0 700.000000 700.000000" preserveAspectRatio="xMidYMid meet">
<metadata>
Created by potrace 1.12, written by Peter Selinger 2001-2015
</metadata>
<g transform="translate(0.000000,700.000000) scale(0.100000,-0.100000)" fill="#000000" stroke="none">
<path d="M3655 5089 c-114 -13 -326 -83 -403 -132 -26 -17 -81 -65 -123 -107
-65 -65 -85 -94 -132 -191 -90 -184 -117 -336 -117 -657 0 -256 17 -410 76
-702 38 -187 46 -244 46 -335 0 -107 -3 -126 -37 -250 -76 -276 -354 -562
-727 -751 -54 -27 -98 -53 -98 -57 0 -5 19 -6 43 -3 23 3 101 8 172 11 72 4
148 10 170 15 22 5 99 16 170 25 160 20 440 72 480 90 17 8 75 28 130 45 106
33 184 61 200 72 6 3 45 24 88 47 99 52 208 126 274 185 54 49 173 190 173
206 0 5 11 26 25 46 36 54 75 188 75 262 0 87 -45 211 -121 339 -66 108 -144
204 -333 409 -61 66 -129 144 -152 174 -76 98 -149 240 -171 333 -16 72 -19
229 -4 303 30 152 141 287 301 363 73 35 78 36 195 35 115 0 123 -2 183 -32
107 -55 207 -163 252 -273 12 -30 29 -71 38 -92 9 -22 32 -51 51 -65 l35 -27
218 -1 c121 0 221 3 224 7 2 5 -17 17 -43 29 -26 11 -109 49 -183 83 l-134 63
-36 105 c-40 118 -73 170 -156 250 -70 66 -131 103 -205 125 -30 9 -60 21 -66
26 -7 6 -13 7 -13 3 0 -4 -6 -3 -13 3 -15 13 -169 32 -237 31 -25 -1 -76 -5
-115 -10z"></path>
<path d="M3801 4609 c-48 -29 -69 -58 -76 -105 -9 -55 16 -108 67 -141 33 -22
45 -25 89 -20 80 10 119 57 119 146 0 39 -6 56 -26 81 -52 61 -114 75 -173 39z"></path>
</g>
</svg>